<svg xmlns="http://www.w3.org/2000/svg" width="12.576" height="12.825" viewBox="0 0 12.576 12.825">
  <path id="star" d="M12.543,5.342a.678.678,0,0,0-.575-.488L8.338,4.5,6.9.928a.654.654,0,0,0-1.23,0L4.238,4.5.607,4.853a.68.68,0,0,0-.575.488A.742.742,0,0,0,.228,6.1L2.972,8.658l-.809,3.792a.735.735,0,0,0,.26.734.634.634,0,0,0,.735.035l3.131-1.992,3.13,1.992a.635.635,0,0,0,.735-.035.735.735,0,0,0,.26-.734L9.6,8.658,12.348,6.1A.742.742,0,0,0,12.543,5.342Zm-6.2,5.848" transform="translate(0 -0.496)"/>
</svg>
